<?xml version="1.0" encoding="UTF-8"?>
<!DOCTYPE svg PUBLIC "-//W3C//DTD SVG 1.1//EN" "http://www.w3.org/Graphics/SVG/1.1/DTD/svg11.dtd">
<svg xmlns="http://www.w3.org/2000/svg" xmlns:xlink="http://www.w3.org/1999/xlink" version="1.1" width="379" height="379" viewBox="-0.5 -0.5 379 379"><defs><filter id="dropShadow"><feGaussianBlur in="SourceAlpha" stdDeviation="1.7" result="blur"/><feOffset in="blur" dx="3" dy="3" result="offsetBlur"/><feFlood flood-color="#3D4574" flood-opacity="0.4" result="offsetColor"/><feComposite in="offsetColor" in2="offsetBlur" operator="in" result="offsetBlur"/><feBlend in="SourceGraphic" in2="offsetBlur"/></filter></defs><g filter="url(#dropShadow)"><path d="M 330 349 L 370 349" fill="none" stroke="#000000" stroke-width="2" stroke-miterlimit="10" transform="translate(2,3)rotate(45,350,349)" pointer-events="all" opacity="0.25"/><path d="M 330 349 L 370 349" fill="none" stroke="#402309" stroke-width="2" stroke-miterlimit="10" transform="rotate(45,350,349)" pointer-events="all"/><path d="M 257 236 Q 287 236 287 251 Q 287 266 257 266" fill="none" stroke="#000000" stroke-width="2" stroke-miterlimit="10" transform="translate(2,3)rotate(315,272,251)" pointer-events="all" opacity="0.25"/><path d="M 257 236 Q 287 236 287 251 Q 287 266 257 266" fill="none" stroke="#402309" stroke-width="2" stroke-miterlimit="10" transform="rotate(315,272,251)" pointer-events="all"/><path d="M 278 257 Q 308 257 308 272 Q 308 287 278 287" fill="none" stroke="#000000" stroke-width="2" stroke-miterlimit="10" transform="translate(2,3)rotate(315,293,272)" pointer-events="all" opacity="0.25"/><path d="M 278 257 Q 308 257 308 272 Q 308 287 278 287" fill="none" stroke="#402309" stroke-width="2" stroke-miterlimit="10" transform="rotate(315,293,272)" pointer-events="all"/><path d="M 299 278 Q 329 278 329 293 Q 329 308 299 308" fill="none" stroke="#000000" stroke-width="2" stroke-miterlimit="10" transform="translate(2,3)rotate(315,314,293)" pointer-events="all" opacity="0.25"/><path d="M 299 278 Q 329 278 329 293 Q 329 308 299 308" fill="none" stroke="#402309" stroke-width="2" stroke-miterlimit="10" transform="rotate(315,314,293)" pointer-events="all"/><path d="M 320 299 Q 350 299 350 314 Q 350 329 320 329" fill="none" stroke="#000000" stroke-width="2" stroke-miterlimit="10" transform="translate(2,3)rotate(315,335,314)" pointer-events="all" opacity="0.25"/><path d="M 320 299 Q 350 299 350 314 Q 350 329 320 329" fill="none" stroke="#402309" stroke-width="2" stroke-miterlimit="10" transform="rotate(315,335,314)" pointer-events="all"/><path d="M 217 236 L 257 236" fill="none" stroke="#000000" stroke-width="2" stroke-miterlimit="10" transform="translate(2,3)rotate(45,237,236)" pointer-events="all" opacity="0.25"/><path d="M 217 236 L 257 236" fill="none" stroke="#402309" stroke-width="2" stroke-miterlimit="10" transform="rotate(45,237,236)" pointer-events="all"/><path d="M 16.91 272.41 L 136.91 272.41 L 136.91 312.41 L 16.91 312.41 L 16.91 272.41 Z" fill="none" stroke="none" transform="translate(2,3)rotate(45,76.91,292.41)" pointer-events="all" opacity="0.25"/><path d="M 16.91 272.41 L 136.91 272.41 L 136.91 312.41 L 16.91 312.41 L 16.91 272.41 Z" fill="none" stroke="none" transform="rotate(45,76.91,292.41)" pointer-events="all"/><path d="M 16.91 272.41 L 16.91 312.41 L 16.91 312.41 L 136.91 312.41 L 136.91 272.41 L 16.91 272.41" fill="none" stroke="none" transform="rotate(45,76.91,292.41)" pointer-events="all"/><path d="M 16.91 272.41 L 136.91 272.41 L 136.91 312.41 L 16.91 312.41 L 16.91 272.41 Z" fill="none" stroke="#402309" stroke-width="2" stroke-miterlimit="10" transform="rotate(45,76.91,292.41)" pointer-events="all"/><path d="M 113.91 348.91 L 153.91 348.91" fill="none" stroke="#000000" stroke-width="2" stroke-miterlimit="10" transform="translate(2,3)rotate(45,133.91,348.91)" pointer-events="all" opacity="0.25"/><path d="M 113.91 348.91 L 153.91 348.91" fill="none" stroke="#402309" stroke-width="2" stroke-miterlimit="10" transform="rotate(45,133.91,348.91)" pointer-events="all"/><path d="M -0.09 235.91 L 39.91 235.91" fill="none" stroke="#000000" stroke-width="2" stroke-miterlimit="10" transform="translate(2,3)rotate(45,19.91,235.91)" pointer-events="all" opacity="0.25"/><path d="M -0.09 235.91 L 39.91 235.91" fill="none" stroke="#402309" stroke-width="2" stroke-miterlimit="10" transform="rotate(45,19.91,235.91)" pointer-events="all"/><path d="M 41.25 35.25 L 111.25 75.25 L 41.25 115.25 Z" fill="none" stroke="#000000" stroke-width="2" stroke-miterlimit="10" transform="translate(2,3)rotate(-135,76.25,75.25)" pointer-events="all" opacity="0.25"/><path d="M 41.25 35.25 L 111.25 75.25 L 41.25 115.25 Z" fill="none" stroke="#402309" stroke-width="2" stroke-miterlimit="10" transform="rotate(-135,76.25,75.25)" pointer-events="all"/><path d="M -23.75 75.25 L 176.25 75.25" fill="none" stroke="#000000" stroke-width="2" stroke-miterlimit="10" transform="translate(2,3)rotate(-135,76.25,75.25)" pointer-events="all" opacity="0.25"/><path d="M -23.75 75.25 L 176.25 75.25" fill="none" stroke="#402309" stroke-width="2" stroke-miterlimit="10" transform="rotate(-135,76.25,75.25)" pointer-events="all"/><path d="M 13.25 52.25 L 93.25 52.25" fill="none" stroke="#000000" stroke-width="2" stroke-miterlimit="10" transform="translate(2,3)rotate(-45,53.25,52.25)" pointer-events="all" opacity="0.25"/><path d="M 13.25 52.25 L 93.25 52.25" fill="none" stroke="#402309" stroke-width="2" stroke-miterlimit="10" transform="rotate(-45,53.25,52.25)" pointer-events="all"/><path d="M 209.63 35.69 L 297.76 35.69" fill="none" stroke="#000000" stroke-width="2" stroke-miterlimit="10" transform="translate(2,3)rotate(45,253.69,35.69)" pointer-events="all" opacity="0.25"/><path d="M 209.63 35.69 L 297.76 35.69" fill="none" stroke="#402309" stroke-width="2" stroke-miterlimit="10" transform="rotate(45,253.69,35.69)" pointer-events="all"/><path d="M 245.63 67.69 L 325.63 67.69" fill="none" stroke="#000000" stroke-width="2" stroke-miterlimit="10" transform="translate(2,3)rotate(135,285.63,67.69)" pointer-events="all" opacity="0.25"/><path d="M 245.63 67.69 L 325.63 67.69" fill="none" stroke="#402309" stroke-width="2" stroke-miterlimit="10" transform="rotate(135,285.63,67.69)" pointer-events="all"/><path d="M 261.63 83.69 L 341.63 83.69" fill="none" stroke="#000000" stroke-width="2" stroke-miterlimit="10" transform="translate(2,3)rotate(135,301.63,83.69)" pointer-events="all" opacity="0.25"/><path d="M 261.63 83.69 L 341.63 83.69" fill="none" stroke="#402309" stroke-width="2" stroke-miterlimit="10" transform="rotate(135,301.63,83.69)" pointer-events="all"/><path d="M 288.63 115.69 L 376.75 115.69" fill="none" stroke="#000000" stroke-width="2" stroke-miterlimit="10" transform="translate(2,3)rotate(45,332.69,115.69)" pointer-events="all" opacity="0.25"/><path d="M 288.63 115.69 L 376.75 115.69" fill="none" stroke="#402309" stroke-width="2" stroke-miterlimit="10" transform="rotate(45,332.69,115.69)" pointer-events="all"/></g></svg>